<svg width="692" height="627" viewBox="0 0 692 627" fill="none" xmlns="http://www.w3.org/2000/svg">
<path d="M482.463 95.826C482.802 98.1713 484.042 100.292 485.92 101.737C487.799 103.181 490.167 103.836 492.521 103.561C492.998 103.498 493.47 103.395 493.93 103.254L512.89 128.704L529.189 123.627L499.447 91.5714C498.714 89.7069 497.384 88.1375 495.665 87.1081C493.946 86.0788 491.935 85.6475 489.945 85.8814C488.814 86.0254 487.723 86.3907 486.733 86.9565C485.743 87.5224 484.874 88.2776 484.177 89.1791C483.479 90.0806 482.965 91.1108 482.665 92.2108C482.366 93.3107 482.285 94.459 482.429 95.5899C482.439 95.6688 482.451 95.7475 482.463 95.826Z" fill="#A0616A"/>
<path d="M616.347 209.493C616.347 209.493 545.55 176.452 527.641 155.348L495.55 115.503L511.825 102.189L541.989 136.933C541.714 144.233 577.367 151.717 596.533 162.359L616.347 209.493Z" fill="#E6E6E6"/>
<path d="M633.752 588.051L619.866 588.05L613.26 534.486L633.755 534.487L633.752 588.051Z" fill="#A0616A"/>
<path d="M634.241 602.537L591.538 602.535V601.995C591.538 597.587 593.29 593.36 596.407 590.243C599.524 587.126 603.751 585.375 608.159 585.374L615.961 579.457L630.514 585.375L634.242 585.375L634.241 602.537Z" fill="#2F2E41"/>
<path d="M600.646 575.799L587.123 578.953L568.519 528.292L588.478 523.636L600.646 575.799Z" fill="#A0616A"/>
<path d="M604.414 589.796L562.828 599.497L562.705 598.971C561.704 594.678 562.449 590.164 564.776 586.42C567.103 582.676 570.822 580.01 575.115 579.008L575.116 579.008L581.368 571.473L596.885 573.93L600.516 573.083L604.414 589.796Z" fill="#2F2E41"/>
<path d="M467.568 298H81.0015C78.5618 297.97 76.1334 297.637 73.7638 297.009C66.6915 295.173 60.3994 290.813 55.9054 284.634C51.4115 278.456 48.9785 270.82 49.0001 262.961V121.007C49.0136 111.721 52.4358 102.821 58.5159 96.2582C64.596 89.6954 72.8374 86.0063 81.432 86.0001H467.568C472.773 85.9852 477.903 87.3418 482.513 89.9522C484.349 90.9807 486.085 92.2046 487.696 93.6058C491.543 96.8591 494.651 101.019 496.784 105.768C498.916 110.517 500.016 115.729 500 121.007V262.961C499.99 272.251 496.57 281.157 490.49 287.726C484.41 294.295 476.167 297.99 467.568 298Z" fill="#F2F2F2"/>
<path d="M441.199 294.4C458.749 251.746 477.237 209.513 496.664 167.701V238.59C483.192 258.697 468.256 277.568 450.936 294.4H441.199Z" fill="#6C63FF"/>
<path d="M491 95.3176C454.655 162.568 416.626 228.796 376.914 294H370C410.373 227.773 449.063 160.439 486.07 92C487.816 92.9338 489.468 94.0452 491 95.3176Z" fill="#6C63FF"/>
<path d="M230.598 178.357C207.905 218.481 182.862 257.229 155.601 294.4H116.221C142.015 262.977 167.828 231.553 193.66 200.13C201.07 191.082 209.113 181.603 220.229 177.927L230.598 178.357Z" fill="#6C63FF"/>
<path d="M178.264 171.923C174.157 176.203 170.221 180.655 166.516 185.28C158.359 195.103 150.316 205.013 142.245 214.894C137.218 221.04 132.192 227.187 127.222 233.334C125.644 232.32 124.146 231.187 122.742 229.945C114.804 223.056 109.881 213.332 109.027 202.857C108.173 192.382 111.456 181.99 118.172 173.906C124.888 165.823 134.504 160.691 144.958 159.612C155.412 158.532 165.873 161.591 174.099 168.132C175.582 169.288 176.974 170.555 178.264 171.923Z" fill="white"/>
<path d="M400.383 199.842L324.898 172.239L287.414 158.538C275.206 154.086 263.027 149.002 250.418 145.785C239.452 142.651 227.808 142.8 216.926 146.216C207.223 149.807 198.343 155.316 190.817 162.416C187.485 165.489 184.258 168.658 181.137 171.923C177.029 176.203 173.094 180.655 169.389 185.28C161.231 195.103 153.189 205.013 145.117 214.893C140.091 221.04 135.064 227.187 130.095 233.334C113.493 253.641 96.9864 273.997 80.5758 294.4C78.3681 294.374 76.1707 294.095 74.0269 293.567C91.1461 272.312 108.342 251.104 125.614 229.944C127.596 227.474 129.635 224.975 131.646 222.505C140.062 212.193 148.488 201.891 156.923 191.599C163.443 183.642 169.906 175.628 176.972 168.132C177.604 167.442 178.236 166.782 178.896 166.092C193.229 151.271 211.124 138.173 232.552 137.828C245.161 137.627 257.34 141.62 269.059 145.842C281.669 150.409 294.25 155.062 306.859 159.687L382.862 187.491L401.877 194.442C405.237 195.649 403.801 201.106 400.383 199.842Z" fill="#6C63FF"/>
<path d="M645.785 327.972L559.383 332.303L553.383 361.303V387.133L549.701 483.311L575.383 558.303H595.974L593.883 548.803C595.025 547.206 595.667 545.305 595.728 543.343C595.789 541.38 595.265 539.444 594.224 537.78L592.572 535.139L589.883 523.803L583.883 481.803L609.58 387.133L612.883 559.803H635.252L638.533 556.056C640.355 553.975 641.44 551.351 641.619 548.591C641.798 545.831 641.062 543.088 639.525 540.789V536.602L636.883 521.803L661.536 338.094L645.785 327.972Z" fill="#2F2E41"/>
<path d="M608.453 147.946L580.268 149.389L577.066 162.748L556.599 178.412C551.971 181.953 548.426 186.718 546.364 192.168C544.302 197.618 543.805 203.536 544.929 209.254L556.274 266.97L555.536 303.094L557.173 317.887L557.049 320.126L554.543 322.178C552.838 323.573 551.659 325.507 551.2 327.662C550.74 329.817 551.028 332.064 552.016 334.033C552.016 334.033 539.665 360.736 557.536 362.094C575.407 363.452 586.461 344.87 603.536 352.094C620.611 359.319 635.855 360.165 640.536 352.094C645.217 344.023 659.458 345.904 661.171 338.854C662.883 331.803 654.213 323.822 653.048 313.312C651.883 302.803 648.883 253.803 648.883 253.803L657.273 205.696C658.461 198.885 657.402 191.873 654.255 185.717C651.108 179.561 646.045 174.595 639.829 171.568L612.968 158.491L608.453 147.946Z" fill="#E6E6E6"/>
<path d="M461.668 298.567C462.802 296.12 464.845 294.213 467.363 293.25C469.882 292.287 472.676 292.345 475.153 293.412C475.652 293.636 476.133 293.902 476.589 294.206L505.55 272.64L521.664 283.486L478.796 308.739C477.39 310.532 475.429 311.81 473.219 312.372C471.01 312.934 468.677 312.749 466.584 311.845C465.398 311.32 464.328 310.566 463.433 309.627C462.538 308.687 461.838 307.581 461.37 306.371C460.903 305.161 460.679 303.87 460.711 302.574C460.743 301.277 461.029 299.999 461.555 298.813C461.591 298.73 461.629 298.648 461.668 298.567Z" fill="#A0616A"/>
<path d="M551.652 184.834C551.652 184.834 514.111 253.193 499.572 273.299L488.536 281.919L489.536 310.094L514.198 296.485C514.198 296.485 563.963 258.789 562.536 243.094C561.109 227.399 551.652 184.834 551.652 184.834Z" fill="#E6E6E6"/>
<path d="M591.969 145.689C606.677 145.689 618.6 133.766 618.6 119.058C618.6 104.349 606.677 92.4258 591.969 92.4258C577.26 92.4258 565.337 104.349 565.337 119.058C565.337 133.766 577.26 145.689 591.969 145.689Z" fill="#A0616A"/>
<path d="M602.259 143.506C594.617 143.255 593.923 141.237 586.28 140.986C583.847 140.906 580.975 140.573 579.799 138.441C578.961 136.923 579.347 135.011 580.084 133.442C580.956 131.944 581.742 130.398 582.438 128.81C582.858 127.566 582.968 126.238 582.759 124.941C582.55 123.644 582.028 122.418 581.239 121.368C580.45 120.318 579.417 119.476 578.23 118.914C577.042 118.353 575.736 118.089 574.424 118.146C572.098 118.247 569.914 119.34 567.595 119.54C564.414 119.814 557.381 109.312 558.845 106.476C560.27 103.714 563.139 101.631 563.59 98.5562C563.885 96.5452 563.055 94.547 562.941 92.5177C562.773 89.5088 570.4 96.2933 569.004 93.6229C565.577 87.0724 597.867 78.9515 603.183 87.1566C605.17 90.2232 608.71 90.014 611.866 91.8557C613.935 93.0628 619.158 97.2271 620.345 99.8226C621.436 102.471 621.952 105.321 621.858 108.184C621.905 121.498 619.877 133.745 609.138 141.615" fill="#2F2E41"/>
<path d="M469.591 596.96C462.369 597.597 455.097 596.612 448.305 594.078C441.513 591.544 435.372 587.525 430.332 582.315C423.741 575.366 419.218 566.422 414.845 557.773C413.571 555.256 412.255 552.653 410.916 550.159C409.424 547.439 408.779 544.335 409.067 541.246C409.354 538.157 410.56 535.225 412.528 532.827C414.415 530.43 416.976 528.653 419.882 527.724C422.787 526.796 425.904 526.759 428.831 527.618L429.469 527.803L435.214 550.217C436.071 546.874 437.91 539.341 439.071 531.961L439.169 531.343L439.741 531.597C445.739 534.251 451.379 537.65 456.527 541.713C465.648 549.029 473.066 558.243 478.266 568.716C483.467 579.188 486.324 590.667 486.639 602.356L486.655 603.053L469.591 596.96Z" fill="#F2F2F2"/>
<path d="M688.736 603.995L409.986 604.302C409.671 604.301 409.369 604.175 409.146 603.952C408.924 603.729 408.799 603.427 408.799 603.112C408.799 602.796 408.924 602.494 409.146 602.271C409.369 602.048 409.671 601.922 409.986 601.921L688.736 601.614C688.893 601.613 689.048 601.644 689.193 601.703C689.338 601.763 689.469 601.85 689.58 601.961C689.691 602.072 689.779 602.203 689.839 602.348C689.899 602.492 689.93 602.648 689.93 602.804C689.93 602.961 689.899 603.116 689.839 603.261C689.779 603.405 689.691 603.537 689.58 603.647C689.469 603.758 689.338 603.846 689.193 603.905C689.048 603.965 688.893 603.995 688.736 603.995Z" fill="#CACACA"/>
<path d="M236 55.56C251.343 55.56 263.78 43.1225 263.78 27.78C263.78 12.4375 251.343 0 236 0C220.658 0 208.22 12.4375 208.22 27.78C208.22 43.1225 220.658 55.56 236 55.56Z" fill="#6C63FF"/>
<path d="M232.21 42.2381C231.73 42.2381 231.257 42.1264 230.828 41.9118C230.399 41.6972 230.026 41.3856 229.738 41.0018L222.159 30.8965C221.915 30.5719 221.737 30.2024 221.636 29.809C221.534 29.4155 221.512 29.006 221.569 28.6038C221.626 28.2015 221.762 27.8145 221.969 27.4648C222.175 27.1152 222.449 26.8097 222.774 26.566C223.099 26.3222 223.469 26.145 223.863 26.0443C224.256 25.9437 224.666 25.9217 225.068 25.9795C225.47 26.0373 225.857 26.1739 226.206 26.3814C226.556 26.5888 226.86 26.8631 227.104 27.1886L232.062 33.7992L244.797 14.6972C245.022 14.3592 245.311 14.0688 245.648 13.8426C245.985 13.6164 246.364 13.4589 246.762 13.3791C247.16 13.2993 247.57 13.2988 247.968 13.3775C248.367 13.4562 248.746 13.6126 249.084 13.8379C249.421 14.0631 249.712 14.3527 249.937 14.6901C250.163 15.0275 250.32 15.4062 250.4 15.8044C250.479 16.2026 250.48 16.6125 250.401 17.0108C250.321 17.4091 250.165 17.7879 249.939 18.1255L234.782 40.862C234.507 41.2732 234.139 41.6126 233.706 41.8519C233.274 42.0912 232.79 42.2233 232.296 42.2371C232.267 42.2376 232.239 42.2381 232.21 42.2381Z" fill="white"/>
<rect x="75.5" y="107.5" width="372" height="178" rx="12.5" stroke="#898181" stroke-width="3" stroke-dasharray="17 17"/>
</svg>
