
        <svg width="482" height="321" viewBox="0 0 482 321" fill="none" xmlns="http://www.w3.org/2000/svg" >
            <path
                d="M0.492684 269.701C2.62259 252.574 13.2369 235.699 29.5707 230.125C23.1291 247.754 23.1305 267.092 29.5747 284.72C32.0845 291.509 35.5831 298.799 33.2222 305.641C31.7533 309.899 28.1598 313.156 24.143 315.193C20.126 317.23 15.6679 318.2 11.2656 319.152L10.3992 319.868C3.41061 304.088 -1.63722 286.828 0.492684 269.701Z"
                fill="#CCCCCC"
            />
            <path
                d="M29.7329 230.449C20.2209 241.107 14.3089 254.491 12.8366 268.701C12.4654 271.754 12.5777 274.847 13.1695 277.865C13.8411 280.787 15.2827 283.475 17.3447 285.651C19.2265 287.719 21.3908 289.616 22.7372 292.105C23.4075 293.389 23.7988 294.8 23.8853 296.246C23.9719 297.693 23.7518 299.141 23.2394 300.496C22.0506 303.905 19.7076 306.684 17.3219 309.323C14.673 312.252 11.8752 315.252 10.7493 319.136C10.6128 319.606 9.89075 319.367 10.027 318.897C11.986 312.141 18.5445 308.303 21.6722 302.218C23.1317 299.378 23.7443 296.082 22.3761 293.084C21.1796 290.463 18.9494 288.505 17.026 286.428C14.9833 284.335 13.4843 281.774 12.6599 278.967C11.9163 275.989 11.685 272.906 11.9759 269.85C12.521 262.959 14.1461 256.197 16.7917 249.811C19.7707 242.506 23.9774 235.765 29.2297 229.879C29.5549 229.514 30.0561 230.087 29.733 230.449H29.7329Z"
                fill="white"
            />
            <path
                d="M13.0413 264.097C10.6908 263.527 8.61972 262.139 7.19787 260.183C5.77602 258.226 5.096 255.827 5.27926 253.416C5.31802 252.928 6.07797 252.965 6.03917 253.454C5.86437 255.699 6.49803 257.933 7.82577 259.753C9.15352 261.572 11.0879 262.857 13.2798 263.375C13.756 263.488 13.5147 264.21 13.0413 264.097H13.0413Z"
                fill="white"
            />
            <path
                d="M16.2525 284.729C20.4977 282.194 23.6316 278.152 25.0292 273.409C25.1673 272.939 25.8894 273.178 25.7515 273.648C24.2879 278.58 21.0181 282.78 16.5946 285.408C16.1728 285.658 15.833 284.977 16.2525 284.729V284.729Z"
                fill="white"
            />
            <path
                d="M20.4763 243.227C21.3397 243.637 22.2915 243.827 23.2463 243.778C24.201 243.73 25.1288 243.445 25.9462 242.949C26.3646 242.694 26.704 243.375 26.2883 243.629C25.3826 244.172 24.3576 244.485 23.3029 244.541C22.2482 244.597 21.1958 244.394 20.2378 243.949C20.1439 243.915 20.0667 243.846 20.0218 243.757C19.9769 243.668 19.9676 243.565 19.9959 243.469C20.0279 243.373 20.0964 243.294 20.1863 243.249C20.2763 243.204 20.3805 243.196 20.4763 243.227V243.227Z"
                fill="white"
            />
            <path
                d="M79.3587 260.716C79.102 260.883 78.8452 261.05 78.5882 261.223C75.1483 263.485 71.8978 266.023 68.8688 268.811C68.6312 269.023 68.3936 269.242 68.1626 269.46C60.9368 276.256 55.0354 284.334 50.7586 293.284C49.06 296.847 47.6349 300.534 46.4957 304.313C44.9227 309.532 43.6325 315.317 40.5188 319.586C40.199 320.035 39.8516 320.464 39.4787 320.87H11.3407C11.2767 320.838 11.2124 320.812 11.1482 320.78L10.0247 320.831C10.0699 320.632 10.121 320.427 10.1661 320.228C10.1918 320.112 10.2238 319.997 10.2495 319.881C10.2686 319.804 10.288 319.727 10.3009 319.656C10.3072 319.631 10.3137 319.605 10.32 319.586C10.3328 319.515 10.3523 319.451 10.3651 319.387C10.6476 318.238 10.9386 317.088 11.2382 315.939C11.2382 315.933 11.2381 315.933 11.2444 315.927C13.5493 307.176 16.605 298.542 20.8741 290.645C21.0027 290.408 21.1309 290.164 21.2722 289.926C23.2163 286.378 25.4472 282.994 27.9425 279.809C29.3145 278.069 30.7737 276.4 32.3145 274.808C36.3035 270.701 40.9135 267.248 45.9757 264.574C56.0678 259.246 67.7516 257.204 78.5371 260.459C78.813 260.543 79.0829 260.626 79.3587 260.716Z"
                fill="#CCCCCC"
            />
            <path
                d="M79.2954 261.073C65.2837 263.856 52.5051 270.983 42.7746 281.442C40.6398 283.656 38.8675 286.193 37.5228 288.96C36.3 291.697 35.8324 294.711 36.1686 297.69C36.4263 300.474 37.0123 303.292 36.5888 306.09C36.3508 307.519 35.8134 308.881 35.0118 310.088C34.2103 311.295 33.1627 312.318 31.9378 313.092C28.9358 315.098 25.3918 315.907 21.8986 316.577C18.02 317.321 13.9797 318.032 10.7426 320.455C10.3504 320.748 9.91788 320.123 10.3095 319.829C15.9414 315.614 23.4885 316.499 29.6496 313.523C32.5244 312.135 34.9983 309.872 35.7105 306.655C36.3332 303.841 35.7315 300.935 35.4462 298.119C35.0755 295.218 35.4209 292.27 36.4522 289.533C37.6517 286.707 39.3234 284.106 41.3956 281.841C45.9794 276.668 51.3482 272.247 57.3053 268.741C64.0818 264.702 71.4994 261.852 79.237 260.315C79.7159 260.22 79.7712 260.979 79.2954 261.073H79.2954Z"
                fill="white"
            />
            <path
                d="M45.7098 277.89C44.1766 276.019 43.3584 273.664 43.4012 271.246C43.444 268.827 44.3451 266.503 45.9435 264.688C46.2681 264.321 46.8525 264.809 46.5273 265.175C45.0358 266.863 44.1967 269.028 44.1614 271.281C44.1262 273.533 44.8971 275.723 46.3351 277.457C46.6471 277.834 46.02 278.265 45.7098 277.89H45.7098Z"
                fill="white"
            />
            <path
                d="M35.8521 296.296C40.7678 296.828 45.7035 295.488 49.6749 292.542C50.0681 292.25 50.5007 292.876 50.108 293.168C45.9695 296.225 40.8304 297.609 35.7162 297.044C35.2288 296.99 35.3673 296.242 35.8521 296.296V296.296Z"
                fill="white"
            />
            <path
                d="M64.2115 265.702C64.6539 266.55 65.2998 267.274 66.0913 267.81C66.8828 268.346 67.7951 268.678 68.7461 268.774C69.234 268.822 69.0949 269.57 68.6103 269.522C67.5599 269.411 66.5529 269.044 65.6771 268.454C64.8013 267.863 64.0835 267.067 63.5862 266.135C63.532 266.052 63.5117 265.95 63.5296 265.852C63.5474 265.754 63.602 265.666 63.6823 265.606C63.7654 265.549 63.8676 265.527 63.9667 265.545C64.0658 265.563 64.1537 265.62 64.2115 265.702V265.702Z"
                fill="white"
            />
            <path d="M231.085 313.103L238.545 310.593L232.414 280.625L221.405 284.33L231.085 313.103Z" fill="#FFB6B6" />
            <path
                d="M228.363 311.307L230.463 310.601L237.539 304.51L243.054 306.365L243.054 306.365C245.537 305.53 248.251 305.715 250.597 306.88C252.943 308.045 254.731 310.094 255.566 312.577L255.668 312.882L231.615 320.974L228.363 311.307Z"
                fill="#2F2E41"
            />
            <path d="M194.894 308.171L202.554 309.983L213.184 281.301L201.88 278.628L194.894 308.171Z" fill="#FFB6B6" />
            <path
                d="M193.532 305.208L195.688 305.718L204.914 304.286L208.616 308.775L208.616 308.776C211.166 309.379 213.371 310.97 214.747 313.199C216.124 315.428 216.558 318.112 215.956 320.662L215.882 320.974L191.185 315.134L193.532 305.208Z"
                fill="#2F2E41"
            />
            <path d="M129.672 303.988H143.184V281.596H129.672V303.988Z" fill="#CACACA" />
            <path d="M142.506 293.445L140.772 296L173.201 318.005L174.935 315.449L142.506 293.445Z" fill="#CACACA" />
            <path d="M130.349 293.444L97.9203 315.449L99.6546 318.005L132.083 296L130.349 293.444Z" fill="#CACACA" />
            <path
                d="M174.068 320.974C176.413 320.974 178.314 319.073 178.314 316.727C178.314 314.382 176.413 312.481 174.068 312.481C171.723 312.481 169.821 314.382 169.821 316.727C169.821 319.073 171.723 320.974 174.068 320.974Z"
                fill="#CACACA"
            />
            <path
                d="M136.235 320.974C138.58 320.974 140.481 319.073 140.481 316.727C140.481 314.382 138.58 312.481 136.235 312.481C133.889 312.481 131.988 314.382 131.988 316.727C131.988 319.073 133.889 320.974 136.235 320.974Z"
                fill="#CACACA"
            />
            <path
                d="M98.7874 320.974C101.133 320.974 103.034 319.073 103.034 316.727C103.034 314.382 101.133 312.481 98.7874 312.481C96.4421 312.481 94.5408 314.382 94.5408 316.727C94.5408 319.073 96.4421 320.974 98.7874 320.974Z"
                fill="#CACACA"
            />
            <path d="M137.779 294.722H134.69V316.727H137.779V294.722Z" fill="#CACACA" />
            <path d="M133.532 291.634H139.323V261.908H133.532V291.634Z" fill="#CACACA" />
            <path
                d="M106.988 266.54V259.591C106.989 258.312 107.498 257.085 108.403 256.181C109.307 255.276 110.534 254.767 111.813 254.766H156.938C158.218 254.767 159.444 255.276 160.349 256.181C161.254 257.085 161.763 258.312 161.764 259.591V266.54C161.763 267.82 161.254 269.046 160.349 269.951C159.444 270.856 158.218 271.365 156.938 271.366H111.813C110.534 271.365 109.307 270.856 108.403 269.951C107.498 269.046 106.989 267.82 106.988 266.54Z"
                fill="#3F3D56"
            />
            <path
                d="M79.7579 253.725L50.6247 203.634C49.6772 202 49.4163 200.058 49.8992 198.232C50.3821 196.407 51.5694 194.847 53.2006 193.896L54.9034 192.906C56.5368 191.958 58.4793 191.697 60.3048 192.18C62.1302 192.663 63.6896 193.851 64.6408 195.482L93.774 245.574C94.7215 247.207 94.9824 249.149 94.4995 250.975C94.0166 252.8 92.8293 254.36 91.1981 255.311L89.4952 256.301C87.8619 257.249 85.9194 257.51 84.0939 257.027C82.2684 256.544 80.7091 255.357 79.7579 253.725V253.725Z"
                fill="#3F3D56"
            />
            <path
                d="M107.178 266.301C100.88 266.294 94.8425 263.789 90.3894 259.336C85.9363 254.883 83.4315 248.846 83.4243 242.548H85.9923C85.9927 246.429 87.059 250.235 89.0748 253.551C91.0905 256.867 93.9783 259.566 97.4232 261.353C100.868 263.14 104.737 263.947 108.609 263.685C112.481 263.423 116.207 262.103 119.38 259.869L120.861 261.966C116.86 264.797 112.078 266.312 107.178 266.301V266.301Z"
                fill="#3F3D56"
            />
            <path
                d="M134.141 230.35C134.141 230.35 206.043 208.523 216.956 235.486C227.87 262.449 238.142 293.265 238.142 293.265L224.018 297.758L196.413 251.536C196.413 251.536 129.875 268.227 115.958 248.647L134.141 230.35Z"
                fill="#2F2E41"
            />
            <path
                d="M82.1404 175.782L65.4489 174.498L62.239 195.041C62.239 195.041 82.7824 248.326 118.091 253.462L151.474 223.289L114.502 209.514L82.1404 175.782Z"
                fill="#6C63FF"
            />
            <path
                d="M80.1892 163.569C90.9733 158.186 95.3512 145.079 89.9674 134.295C84.5836 123.511 71.4769 119.133 60.6928 124.517C49.9087 129.9 45.5309 143.007 50.9146 153.791C56.2984 164.575 69.4051 168.953 80.1892 163.569Z"
                fill="#FFB8B8"
            />
            <path
                d="M76.4964 166.651C75.4888 167.494 73.9707 167.938 71.8943 168.002C65.7834 168.191 59.7793 166.37 54.8031 162.817C49.827 159.265 46.1535 154.179 44.3464 148.338C43.437 145.399 42.6669 141.014 44.1615 136.817C45.2364 133.8 47.3467 131.27 49.2404 129.136C50.8797 127.288 52.5903 125.477 54.3255 123.755C56.3984 121.697 58.8693 119.411 61.9687 118.338C64.2397 117.552 66.6738 117.481 69.0278 117.414C69.848 117.39 70.6966 117.366 71.5209 117.311C73.571 117.241 75.5833 116.739 77.4261 115.838C77.8044 115.635 78.2218 115.516 78.6501 115.488C79.0785 115.461 79.5077 115.525 79.9089 115.678C80.3173 115.833 80.6878 116.073 80.9953 116.383C81.3028 116.693 81.5401 117.066 81.6914 117.475C81.989 118.281 82.257 119.007 83.1678 119.275C83.4961 119.363 83.8409 119.37 84.1722 119.294C84.5036 119.218 84.8112 119.062 85.0683 118.84C85.204 118.722 85.3669 118.641 85.5421 118.602C85.7174 118.564 85.8994 118.57 86.0717 118.62C86.2443 118.668 86.4026 118.757 86.5326 118.88C86.6627 119.004 86.7606 119.157 86.8179 119.326L86.8927 119.548C87.0795 119.419 87.2948 119.337 87.5201 119.31C87.7454 119.283 87.9739 119.311 88.1859 119.392C88.4932 119.503 88.7536 119.715 88.9241 119.993C89.0945 120.272 89.1648 120.6 89.1234 120.924C88.8188 123.596 87.7715 126.128 86.1002 128.235C84.9447 129.662 83.5199 130.848 81.9068 131.725L81.6484 131.868L81.4698 131.599C74.217 134.278 72.0022 141.877 72.3604 148.147L71.7259 148.232C71.6768 148.029 71.587 147.837 71.4618 147.669C71.3366 147.501 71.1787 147.36 70.9976 147.254C70.788 147.121 70.5542 147.031 70.3096 146.988C70.0651 146.946 69.8145 146.952 69.5722 147.006C69.1117 147.151 68.7045 147.43 68.4019 147.806C68.0994 148.182 67.915 148.64 67.872 149.12C67.8391 149.623 67.9112 150.127 68.0837 150.6C68.2563 151.074 68.5255 151.506 68.8742 151.869C69.6331 152.623 70.5098 153.249 71.4698 153.721C71.9049 153.966 72.3553 154.221 72.7818 154.5C75.1958 156.093 76.9375 158.52 77.674 161.317C78.0051 162.597 78.1952 164.424 77.2205 165.854C77.0172 166.152 76.7735 166.42 76.4964 166.651V166.651Z"
                fill="#2F2E41"
            />
            <path d="M219.797 243.754C216.437 272.648 209.253 299.684 209.253 299.684L195.771 297.758L198.842 243.272" fill="#2F2E41" />
            <path
                d="M86.8604 147.547C86.2155 147.546 85.5877 147.34 85.0687 146.957C84.5497 146.574 84.1666 146.036 83.9754 145.42C75.2157 140.855 79.8467 137.636 80.45 134.011C80.333 133.633 80.2917 133.235 80.3285 132.84C80.3653 132.446 80.4794 132.063 80.6643 131.712C80.8493 131.362 81.1015 131.051 81.4064 130.798C81.7114 130.546 82.0632 130.355 82.4417 130.238L91.3969 127.471C92.1615 127.235 92.9883 127.313 93.6959 127.686C94.4034 128.06 94.9338 128.699 95.1707 129.463L98.6963 140.871C98.9315 141.636 98.8539 142.462 98.4805 143.17C98.107 143.877 97.4683 144.408 96.7044 144.645L87.7492 147.412C87.4614 147.501 87.1617 147.547 86.8604 147.547V147.547Z"
                fill="#3F3D56"
            />
            <path
                d="M92.7119 127.075C93.3638 127.07 93.9999 127.276 94.5258 127.661C95.0517 128.046 95.4396 128.591 95.6318 129.214L99.3459 140.878C99.597 141.66 99.5338 142.508 99.1698 143.244C98.9947 143.605 98.7496 143.927 98.4486 144.192C98.1477 144.457 97.7969 144.659 97.4169 144.787L95.4034 145.463L89.8122 127.903L91.8255 127.228C92.1114 127.132 92.4103 127.08 92.7119 127.075V127.075Z"
                fill="#6C63FF"
            />
            <path
                d="M46.4211 154.046C46.0041 154.045 45.5982 153.912 45.2626 153.664C44.927 153.417 44.6793 153.069 44.5558 152.67L43.6229 149.652C43.5473 149.407 43.5206 149.15 43.5444 148.894C43.5682 148.639 43.642 148.391 43.7616 148.165C43.8812 147.938 44.0443 147.737 44.2416 147.574C44.4388 147.41 44.6663 147.287 44.9111 147.212L85.3446 134.716C85.5895 134.641 85.8468 134.614 86.102 134.638C86.3572 134.662 86.6052 134.735 86.8318 134.855C87.0584 134.975 87.2593 135.138 87.4228 135.335C87.5864 135.532 87.7095 135.76 87.7851 136.005L88.7178 139.023C88.87 139.518 88.8198 140.052 88.5784 140.51C88.3369 140.967 87.9238 141.31 87.4298 141.463L46.9961 153.958C46.8099 154.016 46.616 154.046 46.4211 154.046V154.046Z"
                fill="#3F3D56"
            />
            <path
                d="M156.413 248.55H150.388C149.614 248.55 148.87 248.253 148.308 247.722C147.746 247.19 147.409 246.464 147.366 245.691L146.344 227.54C146.32 227.129 146.381 226.717 146.523 226.33C146.664 225.943 146.883 225.59 147.166 225.29C147.449 224.991 147.79 224.753 148.168 224.59C148.546 224.427 148.954 224.343 149.366 224.343H157.435C157.847 224.343 158.254 224.427 158.633 224.59C159.011 224.753 159.352 224.991 159.635 225.29C159.918 225.59 160.137 225.944 160.278 226.33C160.419 226.717 160.48 227.129 160.457 227.54L159.435 245.691C159.392 246.464 159.055 247.19 158.492 247.722C157.93 248.253 157.186 248.55 156.413 248.55Z"
                fill="#E4E4E4"
            />
            <path d="M160.232 228.546L160.155 229.891H146.646L146.569 228.546H160.232Z" fill="#CACACA" />
            <path d="M160.06 231.572L159.986 232.917H146.814L146.74 231.572H160.06Z" fill="#CACACA" />
            <path d="M159.893 234.597L159.815 235.942H146.986L146.908 234.597H159.893Z" fill="#CACACA" />
            <path d="M159.721 237.624L159.644 238.968H147.157L147.08 237.624H159.721Z" fill="#CACACA" />
            <path d="M159.549 240.649L159.476 241.994H147.325L147.252 240.649H159.549Z" fill="#CACACA" />
            <path d="M159.381 243.675L159.304 245.02H147.497L147.419 243.675H159.381Z" fill="#CACACA" />
            <path
                d="M153.568 225.52C154.775 225.52 155.754 225.294 155.754 225.016C155.754 224.737 154.775 224.511 153.568 224.511C152.362 224.511 151.383 224.737 151.383 225.016C151.383 225.294 152.362 225.52 153.568 225.52Z"
                fill="#CACACA"
            />
            <path
                d="M153.734 225.52C153.668 225.52 153.602 225.507 153.541 225.482C153.48 225.456 153.424 225.419 153.377 225.372C153.331 225.325 153.293 225.27 153.268 225.209C153.243 225.147 153.23 225.082 153.23 225.016V215.464H150.038C149.905 215.464 149.777 215.41 149.683 215.316C149.589 215.221 149.536 215.093 149.536 214.96C149.536 214.827 149.589 214.699 149.683 214.604C149.777 214.509 149.905 214.456 150.038 214.456H153.734C153.8 214.456 153.866 214.469 153.927 214.494C153.988 214.519 154.044 214.557 154.091 214.603C154.137 214.65 154.175 214.706 154.2 214.767C154.225 214.828 154.238 214.894 154.238 214.96V225.016C154.238 225.082 154.225 225.147 154.2 225.209C154.175 225.27 154.137 225.325 154.091 225.372C154.044 225.419 153.988 225.456 153.927 225.482C153.866 225.507 153.8 225.52 153.734 225.52V225.52Z"
                fill="#CACACA"
            />
            <path
                d="M152.009 233.796C151.279 233.198 150.427 232.767 149.513 232.533C148.598 232.3 147.644 232.269 146.717 232.445C145.789 232.62 144.912 232.997 144.145 233.548C143.379 234.099 142.743 234.811 142.282 235.635L119.697 231.612L124.413 242.561L145.137 244.703C146.572 245.385 148.208 245.518 149.734 245.075C151.26 244.633 152.571 243.646 153.418 242.302C154.265 240.957 154.589 239.349 154.329 237.781C154.07 236.214 153.244 234.796 152.009 233.796H152.009Z"
                fill="#FFB6B6"
            />
            <path
                d="M137.324 244.825L95.9306 241.571L95.848 241.415C95.6899 241.116 80.0063 211.406 77.6986 204.589C76.2627 200.485 76.2737 196.013 77.7299 191.916L77.7718 191.817L77.865 191.763C79.7729 190.67 81.996 190.261 84.168 190.601C86.3399 190.942 88.331 192.012 89.8128 193.636C96.9256 201.515 102.11 210.94 104.956 221.165L106.568 226.984L136.183 233.617L137.324 244.825Z"
                fill="#6C63FF"
            />
            <path d="M296.407 27.6525L480.77 0.742554V177.274L296.407 150.365V27.6525Z" fill="#CCCCCC" />
            <path
                d="M481.412 178.016L295.764 150.92V27.0974L481.412 0V178.016ZM297.048 149.81L480.128 176.531V1.48522L297.048 28.2077V149.81Z"
                fill="#3F3D56"
            />
            <path
                d="M383.556 62.885C383.282 62.261 382.995 61.6273 382.688 61.0174C382.394 60.4223 382.063 59.846 381.698 59.2918C381.367 58.7851 380.977 58.3195 380.537 57.9045C380.14 57.5288 379.672 57.2378 379.159 57.0493C378.601 56.8562 378 56.8163 377.421 56.9338C376.817 57.0615 376.238 57.2914 375.711 57.6136C375.129 57.9642 374.579 58.3653 374.068 58.8122C373.535 59.2668 373.02 59.763 372.527 60.2548C371.061 61.7202 369.616 63.2051 368.194 64.7095C366.782 66.2049 365.39 67.7191 364.017 69.2521C362.656 70.7762 361.315 72.3187 359.995 73.8795C358.682 75.4318 357.39 77.0021 356.12 78.5904L356.125 78.6841L359.104 78.3144L362.121 77.9401L365.174 77.5613L368.266 77.1761C369.016 77.083 369.776 76.9867 370.535 76.8615C371.302 76.7402 372.062 76.5771 372.811 76.373C373.577 76.1626 374.324 75.8855 375.041 75.5448C375.798 75.1834 376.512 74.7383 377.17 74.2179C377.431 74.0111 377.69 73.7884 377.951 73.5675C378.212 73.3467 378.475 73.1284 378.742 72.9326C378.999 72.7396 379.273 72.5715 379.562 72.4306C379.834 72.2973 380.127 72.2123 380.429 72.1796C380.797 72.1473 381.167 72.2036 381.509 72.3439C381.873 72.4954 382.212 72.703 382.513 72.9589C382.846 73.2398 383.154 73.5501 383.432 73.886C383.726 74.2381 384.001 74.6049 384.258 74.985C385.819 77.3656 387.142 79.8944 388.207 82.5347C389.363 85.2708 390.39 88.1553 391.451 91.0159C392.515 93.8888 393.607 96.7379 394.882 99.3957C396.081 102.007 397.613 104.453 399.44 106.671C398.296 102.782 397.101 98.9418 395.858 95.1516C394.62 91.3806 393.336 87.6627 392.006 83.9978C390.679 80.3531 389.31 76.7655 387.898 73.235C386.492 69.7255 385.045 66.2755 383.555 62.885H383.556Z"
                fill="white"
            />
            <path
                d="M343.377 63.9283L343.331 63.9809L343.286 64.0336L343.24 64.0856L343.194 64.1376C343.083 64.2296 342.971 64.3229 342.86 64.4175C342.75 64.5121 342.639 64.6073 342.529 64.7032C342.419 64.7995 342.31 64.8962 342.201 64.9933L341.874 65.2861C341.67 65.4697 341.466 65.6548 341.264 65.8414C341.061 66.028 340.86 66.2163 340.66 66.4063C340.459 66.5964 340.26 66.789 340.061 66.9841C339.863 67.1793 339.665 67.3742 339.468 67.569C339.077 67.9597 338.69 68.3567 338.306 68.7598C337.922 69.163 337.542 69.5711 337.167 69.9841C336.791 70.3984 336.42 70.8191 336.052 71.2462C335.684 71.6734 335.32 72.1061 334.96 72.5443C334.774 72.7716 334.588 73.0006 334.404 73.2313C334.22 73.4619 334.037 73.6939 333.855 73.9272C333.674 74.1604 333.493 74.3958 333.314 74.6333C333.134 74.8709 332.956 75.1078 332.778 75.344L332.739 75.2798L332.701 75.2156L332.664 75.1514L332.63 75.0782L332.621 75.0615L332.612 75.0448L332.604 75.0281L332.595 75.0108C332.216 74.2746 331.918 73.4998 331.705 72.6997C331.481 71.859 331.334 70.9994 331.267 70.1318C331.197 69.2422 331.204 68.3481 331.289 67.4598C331.373 66.5692 331.539 65.6881 331.784 64.8277C332.013 64.0139 332.327 63.226 332.718 62.4768C333.068 61.8056 333.499 61.1803 334.002 60.615C334.45 60.1103 334.975 59.6791 335.557 59.3375C336.093 59.0232 336.687 58.8194 337.303 58.7379C337.9 58.6629 338.507 58.7178 339.081 58.899C339.681 59.0929 340.238 59.3978 340.725 59.7978C341.273 60.2463 341.75 60.774 342.142 61.3636C342.593 62.0392 342.961 62.7666 343.237 63.5303L343.242 63.5437L343.248 63.5579L343.253 63.572L343.257 63.5855L343.288 63.6708L343.318 63.7569L343.348 63.8435L343.377 63.9283Z"
                fill="#6C63FF"
            />
            <path
                d="M344.017 121.957C344.697 122.033 345.378 122.127 346.061 122.238C346.744 122.35 347.429 122.478 348.115 122.623C348.804 122.771 349.494 122.936 350.184 123.118C350.874 123.301 351.567 123.502 352.263 123.722C354.407 124.405 356.503 125.228 358.539 126.186C360.694 127.198 362.785 128.34 364.801 129.604C366.946 130.949 369.015 132.412 370.998 133.986C373.112 135.664 375.139 137.449 377.071 139.333C377.736 139.98 378.396 140.643 379.051 141.323C379.705 142.003 380.355 142.701 381.002 143.417C381.648 144.133 382.288 144.866 382.922 145.614C383.556 146.363 384.185 147.129 384.809 147.912L385.038 148.201L385.266 148.492L385.494 148.784L385.721 149.078C385.738 149.103 385.761 149.125 385.787 149.139C385.814 149.154 385.844 149.162 385.875 149.163C385.901 149.161 385.927 149.153 385.95 149.139C385.973 149.126 385.993 149.108 386.008 149.087C386.046 149.037 386.067 148.978 386.069 148.916C386.071 148.844 386.049 148.774 386.005 148.717C385.384 147.913 384.756 147.125 384.122 146.353C383.487 145.581 382.847 144.827 382.201 144.092C381.559 143.356 380.909 142.636 380.251 141.932C379.593 141.228 378.933 140.543 378.271 139.877C377.608 139.211 376.94 138.562 376.268 137.93C375.595 137.297 374.92 136.683 374.242 136.087C373.565 135.491 372.883 134.914 372.197 134.354C371.511 133.794 370.823 133.251 370.134 132.725C369.444 132.199 368.751 131.691 368.055 131.2C367.359 130.709 366.662 130.236 365.964 129.781C365.267 129.327 364.568 128.891 363.866 128.472C363.164 128.053 362.462 127.652 361.761 127.268C361.061 126.887 360.36 126.523 359.656 126.177C358.953 125.831 358.251 125.503 357.551 125.195C356.852 124.885 356.151 124.594 355.448 124.32C354.744 124.047 354.044 123.791 353.347 123.554C352.65 123.317 351.954 123.098 351.258 122.897C350.562 122.696 349.869 122.513 349.178 122.349C348.487 122.184 347.797 122.038 347.108 121.908C346.419 121.779 345.733 121.668 345.051 121.574L344.794 121.539L344.537 121.506L344.275 121.476L344.017 121.447C343.994 121.446 343.972 121.452 343.953 121.465C343.932 121.478 343.915 121.496 343.901 121.517C343.886 121.541 343.875 121.567 343.868 121.594C343.859 121.626 343.855 121.659 343.855 121.692C343.855 121.724 343.86 121.757 343.868 121.788C343.875 121.817 343.887 121.845 343.902 121.871C343.915 121.894 343.933 121.914 343.954 121.93C343.972 121.945 343.994 121.954 344.018 121.957H344.017Z"
                fill="white"
            />
            <path
                d="M343.376 105.792C344.591 105.966 345.812 106.142 347.04 106.322C348.268 106.502 349.509 106.692 350.764 106.893C352.017 107.095 353.276 107.309 354.541 107.535C355.812 107.767 357.089 108.017 358.371 108.285C359.664 108.542 360.96 108.834 362.261 109.16C363.568 109.487 364.88 109.847 366.194 110.241C367.516 110.638 368.841 111.068 370.168 111.533C371.502 112.004 372.838 112.509 374.177 113.047C375.367 113.527 376.555 114.05 377.74 114.617C378.925 115.183 380.111 115.794 381.299 116.449C382.487 117.108 383.669 117.811 384.847 118.557C386.024 119.303 387.201 120.096 388.377 120.936C389.477 121.723 390.565 122.558 391.641 123.439C392.716 124.32 393.782 125.251 394.837 126.232C395.892 127.212 396.932 128.238 397.956 129.309C398.98 130.38 399.989 131.498 400.985 132.665C401.969 133.817 402.923 135.018 403.848 136.269C404.772 137.519 405.671 138.82 406.544 140.172C407.413 141.523 408.249 142.919 409.052 144.358C409.854 145.796 410.622 147.28 411.356 148.807C411.447 149 411.538 149.192 411.627 149.385C411.717 149.578 411.807 149.772 411.895 149.969C411.984 150.164 412.072 150.359 412.159 150.556C412.246 150.752 412.332 150.949 412.416 151.147C412.428 151.181 412.447 151.212 412.471 151.238C412.496 151.264 412.525 151.284 412.558 151.298C412.585 151.307 412.613 151.309 412.64 151.306C412.668 151.302 412.694 151.291 412.717 151.276C412.768 151.24 412.805 151.187 412.82 151.126C412.839 151.049 412.83 150.967 412.796 150.896C412.103 149.319 411.369 147.781 410.596 146.281C409.823 144.781 409.015 143.331 408.171 141.93C407.33 140.525 406.455 139.165 405.546 137.85C404.636 136.535 403.699 135.274 402.735 134.068C401.763 132.853 400.771 131.683 399.758 130.556C398.746 129.43 397.72 128.353 396.681 127.326C395.641 126.299 394.586 125.319 393.514 124.384C392.442 123.45 391.362 122.567 390.273 121.735C389.137 120.868 387.993 120.043 386.841 119.261C385.688 118.479 384.535 117.744 383.382 117.055C382.226 116.366 381.067 115.719 379.904 115.116C378.741 114.513 377.578 113.955 376.415 113.442C375.07 112.855 373.725 112.306 372.382 111.794C371.047 111.284 369.714 110.814 368.382 110.381C367.055 109.947 365.733 109.55 364.416 109.192C363.105 108.835 361.797 108.514 360.492 108.229C359.185 107.929 357.883 107.654 356.587 107.403C355.297 107.151 354.013 106.917 352.735 106.702C351.464 106.488 350.199 106.285 348.94 106.094C347.692 105.904 346.447 105.721 345.205 105.545L344.746 105.481L344.289 105.417L343.832 105.35L343.376 105.285C343.352 105.282 343.327 105.286 343.305 105.298C343.283 105.309 343.266 105.327 343.255 105.35C343.228 105.401 343.214 105.459 343.215 105.517C343.215 105.58 343.228 105.642 343.256 105.698C343.267 105.722 343.283 105.744 343.304 105.76C343.325 105.776 343.35 105.788 343.376 105.792V105.792Z"
                fill="white"
            />
            <path
                d="M424.487 145.506C424.291 145.164 424.094 144.82 423.899 144.475C423.703 144.129 423.508 143.785 423.313 143.443C423.119 143.1 422.924 142.757 422.731 142.412C422.538 142.067 422.345 141.723 422.153 141.381C420.59 138.587 419.058 135.79 417.559 132.988C416.068 130.201 414.608 127.409 413.179 124.612C411.757 121.83 410.366 119.041 409.006 116.246C407.651 113.464 406.324 110.677 405.026 107.884C404.148 105.994 403.284 104.101 402.434 102.206C401.584 100.312 400.75 98.4205 399.93 96.5327C399.112 94.6444 398.307 92.7533 397.515 90.8595C396.723 88.9656 395.947 87.0743 395.185 85.1856C394.822 84.2869 394.462 83.3881 394.105 82.4893C393.748 81.5905 393.395 80.6918 393.044 79.793C392.694 78.8942 392.347 77.9955 392.003 77.0967C391.659 76.1979 391.318 75.2991 390.981 74.4004C390.719 73.7036 390.458 73.0064 390.2 72.3088C389.941 71.6112 389.685 70.9138 389.43 70.2166C389.175 69.5194 388.922 68.822 388.671 68.1243C388.421 67.4267 388.171 66.7291 387.924 66.0315C387.853 65.832 387.783 65.6326 387.713 65.4332C387.644 65.2337 387.574 65.0341 387.505 64.8342C387.437 64.6343 387.368 64.4345 387.299 64.2346L387.095 63.6343C386.934 63.1635 386.774 62.6928 386.614 62.222C386.455 61.7512 386.295 61.2817 386.134 60.8135C385.974 60.3452 385.812 59.8785 385.648 59.4133C385.485 58.9481 385.319 58.4854 385.151 58.0253C384.959 57.5015 384.758 56.9719 384.541 56.4512C384.324 55.9306 384.092 55.4202 383.842 54.9329C383.601 54.4577 383.328 53.9988 383.026 53.5591C382.744 53.1471 382.422 52.7643 382.063 52.4164C381.91 52.2623 381.744 52.1212 381.568 51.9946C381.4 51.8743 381.222 51.7694 381.035 51.6813C380.855 51.5964 380.667 51.5291 380.474 51.4803C380.284 51.4325 380.089 51.4039 379.893 51.395C379.614 51.3918 379.336 51.4308 379.069 51.5105C378.795 51.5929 378.53 51.7039 378.278 51.8418C378.015 51.986 377.761 52.1468 377.518 52.3233C377.268 52.5011 377.024 52.6937 376.784 52.8888C375.032 54.329 373.32 55.8295 371.649 57.3904C369.991 58.9402 368.375 60.5477 366.802 62.213C365.238 63.8667 363.717 65.5755 362.239 67.3392C360.77 69.0914 359.343 70.8962 357.96 72.7537C356.582 74.594 355.249 76.4784 353.96 78.407C352.679 80.3261 351.442 82.2884 350.249 84.2939C349.062 86.2888 347.92 88.3249 346.823 90.4024C345.733 92.4666 344.688 94.5712 343.686 96.7163C343.677 96.7422 343.662 96.7655 343.642 96.7844C343.623 96.8032 343.598 96.8171 343.572 96.8248C343.55 96.8283 343.527 96.8266 343.506 96.8197C343.485 96.8127 343.465 96.8009 343.45 96.785C343.41 96.7478 343.383 96.699 343.373 96.6457C343.36 96.5805 343.369 96.5129 343.398 96.4531C343.519 96.1924 343.641 95.9322 343.764 95.6724C343.887 95.4126 344.011 95.1543 344.136 94.8975C344.26 94.6407 344.385 94.3827 344.511 94.1233C344.636 93.864 344.763 93.6072 344.89 93.3529C346.477 90.1542 348.164 87.0485 349.951 84.0359C351.748 81.0027 353.648 78.0695 355.648 75.2362C357.663 72.3815 359.776 69.6341 361.989 66.9938C364.221 64.3322 366.551 61.7856 368.981 59.3542C369.392 58.9438 369.806 58.5372 370.222 58.1345C370.638 57.7317 371.058 57.3318 371.481 56.9346C371.904 56.5379 372.329 56.1448 372.758 55.7553C373.186 55.3658 373.618 54.9796 374.052 54.5965C374.271 54.4035 374.491 54.2109 374.711 54.0187C374.932 53.8266 375.153 53.6357 375.375 53.4461C375.597 53.2561 375.82 53.0677 376.044 52.8811C376.268 52.6945 376.493 52.5101 376.72 52.3278C376.932 52.1336 377.156 51.9531 377.39 51.7872C377.616 51.6288 377.852 51.4859 378.097 51.3597C378.333 51.2375 378.578 51.1328 378.829 51.0464C379.075 50.9627 379.327 50.8983 379.582 50.8538C380.423 50.7786 381.259 51.0363 381.912 51.5715C382.651 52.1836 383.267 52.9304 383.728 53.7722C384.27 54.7258 384.737 55.72 385.126 56.7459C385.533 57.7872 385.887 58.8355 386.205 59.7722C386.306 60.067 386.406 60.3617 386.507 60.6562C386.607 60.9506 386.708 61.2453 386.81 61.5402C386.912 61.8346 387.014 62.1291 387.116 62.4235C387.218 62.718 387.321 63.0122 387.424 63.3063C387.813 64.4242 388.207 65.5412 388.606 66.6574C389.004 67.7736 389.408 68.8902 389.816 70.0073C390.224 71.1248 390.637 72.2414 391.054 73.3571C391.472 74.4729 391.894 75.5893 392.322 76.7064C392.586 77.3963 392.851 78.0855 393.118 78.7742C393.385 79.4628 393.655 80.1523 393.926 80.8426C394.197 81.5326 394.47 82.222 394.745 82.9111C395.02 83.6002 395.296 84.289 395.573 84.9776C396.441 87.1291 397.327 89.2768 398.23 91.4206C399.135 93.5721 400.058 95.7201 400.998 97.8648C401.94 100.018 402.9 102.167 403.88 104.314C404.862 106.469 405.861 108.621 406.879 110.771C408.233 113.632 409.619 116.486 411.035 119.334C412.459 122.197 413.914 125.055 415.4 127.907C416.898 130.774 418.428 133.638 419.99 136.498C421.562 139.374 423.169 142.246 424.81 145.114C424.852 145.187 424.87 145.271 424.862 145.355C424.855 145.425 424.828 145.492 424.784 145.547C424.767 145.57 424.745 145.589 424.72 145.602C424.695 145.615 424.667 145.622 424.638 145.622C424.606 145.617 424.575 145.603 424.548 145.583C424.522 145.563 424.501 145.536 424.487 145.506V145.506Z"
                fill="white"
            />
            <path
                d="M357.65 70.1131L357.511 69.889L357.372 69.665L357.234 69.4409L357.094 69.2169C356.727 68.6295 356.354 68.0453 355.97 67.4797C355.586 66.9141 355.191 66.3646 354.779 65.8548C354.383 65.3541 353.954 64.8797 353.495 64.4348C353.062 64.0148 352.589 63.6383 352.083 63.3107C351.853 63.1582 351.612 63.0226 351.363 62.9049C351.122 62.7918 350.874 62.6974 350.619 62.6225C350.371 62.5493 350.116 62.4963 349.859 62.4639C349.604 62.4319 349.346 62.4209 349.089 62.4311C348.822 62.4573 348.557 62.5019 348.297 62.5647C348.032 62.6285 347.772 62.7097 347.518 62.808C347.257 62.9088 347.003 63.0259 346.757 63.1585C346.503 63.2957 346.256 63.4477 346.019 63.6137C345.905 63.6894 345.791 63.7675 345.677 63.848C345.564 63.9285 345.451 64.0104 345.339 64.0939C345.227 64.1795 345.115 64.2651 345.004 64.3507C344.894 64.4363 344.783 64.5247 344.673 64.6158C344.548 64.7185 344.423 64.8227 344.298 64.9285C344.174 65.0342 344.05 65.1412 343.927 65.2494C343.803 65.3569 343.68 65.4649 343.557 65.5737L343.191 65.9004C342.962 66.1054 342.734 66.3121 342.507 66.5206C342.28 66.729 342.055 66.9394 341.83 67.1516C341.605 67.3656 341.382 67.5796 341.159 67.7936C340.936 68.0076 340.715 68.225 340.495 68.4459C340.056 68.8816 339.622 69.3243 339.193 69.7741C338.763 70.224 338.338 70.6798 337.918 71.1416C337.498 71.6034 337.083 72.0722 336.671 72.5481C336.259 73.0241 335.853 73.506 335.451 73.9939C335.243 74.2472 335.036 74.5021 334.83 74.7585C334.624 75.0148 334.419 75.2729 334.216 75.5327C334.013 75.7925 333.811 76.054 333.611 76.3172C333.41 76.5804 333.211 76.8451 333.013 77.1113C332.829 77.3587 332.646 77.6074 332.464 77.8573C332.282 78.1073 332.102 78.3587 331.922 78.6116C331.743 78.8642 331.565 79.1182 331.387 79.3737C331.21 79.6292 331.034 79.886 330.859 80.1441C330.848 80.1657 330.831 80.1837 330.81 80.196C330.789 80.2082 330.765 80.2143 330.74 80.2134C330.718 80.2087 330.698 80.1994 330.68 80.186C330.661 80.1726 330.646 80.1554 330.636 80.1357C330.606 80.0872 330.589 80.0316 330.588 79.9746C330.585 79.9115 330.602 79.8492 330.638 79.7967L330.776 79.5894L330.916 79.3852L331.055 79.1817L331.195 78.9795C331.327 78.7895 331.46 78.6003 331.593 78.412C331.726 78.2237 331.86 78.0358 331.994 77.8483C332.128 77.6613 332.264 77.4749 332.4 77.2892C332.536 77.1034 332.672 76.9185 332.809 76.7345C333.059 76.3977 333.311 76.0638 333.566 75.733C333.82 75.4022 334.077 75.0735 334.336 74.7469C334.593 74.4229 334.852 74.1004 335.114 73.7794C335.376 73.4585 335.641 73.1402 335.908 72.8248C336.322 72.3331 336.742 71.8484 337.165 71.3707C337.589 70.8931 338.017 70.4223 338.449 69.9584C338.883 69.4932 339.321 69.0352 339.764 68.5845C340.207 68.1339 340.655 67.6894 341.108 67.2512C341.335 67.0325 341.562 66.8157 341.791 66.6008C342.019 66.386 342.249 66.172 342.48 65.9588C342.711 65.7474 342.943 65.5379 343.176 65.3303C343.409 65.1228 343.643 64.9169 343.879 64.7128L344.093 64.5291C344.164 64.4684 344.236 64.408 344.309 64.3481C344.381 64.2882 344.453 64.2287 344.526 64.1696C344.598 64.1106 344.671 64.0524 344.744 63.995C344.909 63.8589 345.077 63.7277 345.246 63.6015C345.415 63.4752 345.586 63.3541 345.759 63.2381C345.931 63.1217 346.105 63.0106 346.281 62.9049C346.458 62.7992 346.635 62.6984 346.812 62.6026C347.06 62.4667 347.318 62.3489 347.583 62.2501C347.839 62.1545 348.103 62.0787 348.371 62.0235C348.634 61.9691 348.901 61.9358 349.17 61.924C349.438 61.9125 349.706 61.9228 349.972 61.9548C350.233 61.9969 350.49 62.0571 350.743 62.1352C350.999 62.2148 351.25 62.3116 351.494 62.4247C351.745 62.5415 351.988 62.674 352.223 62.8215C352.467 62.975 352.701 63.1429 352.925 63.3242C353.423 63.7191 353.887 64.1548 354.313 64.6267C354.763 65.1247 355.187 65.6463 355.581 66.1893C355.988 66.744 356.38 67.3263 356.765 67.9227C357.15 68.5191 357.526 69.1264 357.901 69.7318C357.937 69.7915 357.953 69.8608 357.947 69.9301C357.943 69.9933 357.924 70.0545 357.89 70.108C357.878 70.1295 357.862 70.1483 357.842 70.163C357.822 70.1777 357.799 70.1881 357.775 70.1933C357.749 70.1942 357.723 70.187 357.7 70.1727C357.678 70.1584 357.66 70.1376 357.65 70.1131V70.1131Z"
                fill="white"
            />
            <path
                d="M402.07 95.689L407.806 92.9144L410.7 91.5142C410.936 91.3888 411.172 91.2675 411.41 91.1502C411.647 91.033 411.887 90.9193 412.128 90.8093C412.369 90.6993 412.612 90.5936 412.856 90.4922C413.1 90.3908 413.344 90.293 413.59 90.1988C413.802 90.1185 414.021 90.0583 414.245 90.0191C414.686 89.9419 415.138 89.9504 415.576 90.0441C415.801 90.0922 416.02 90.1609 416.232 90.2495C416.426 90.3452 416.615 90.4524 416.797 90.5705C416.983 90.6915 417.162 90.8229 417.334 90.9641C417.511 91.1095 417.68 91.2642 417.84 91.4276C418.006 91.5961 418.163 91.7729 418.31 91.9572C418.464 92.1447 418.615 92.3358 418.764 92.5305C418.912 92.7252 419.058 92.9236 419.202 93.1256C419.345 93.3276 419.485 93.5333 419.623 93.7425C419.76 93.9518 419.895 94.1646 420.027 94.3807C420.191 94.6409 420.355 94.902 420.518 95.1639C420.682 95.4258 420.845 95.6884 421.007 95.9516L421.496 96.7419L421.986 97.5334C422.661 98.6244 423.337 99.7192 424.013 100.818C424.689 101.916 425.368 103.022 426.05 104.134C426.73 105.246 427.412 106.362 428.094 107.481C428.776 108.6 429.461 109.726 430.149 110.86C430.833 111.993 431.521 113.13 432.211 114.271C432.901 115.412 433.591 116.559 434.281 117.713C434.974 118.869 435.666 120.028 436.36 121.189C437.053 122.351 437.749 123.52 438.447 124.698C439.147 125.877 439.847 127.06 440.547 128.248C441.248 129.435 441.951 130.63 442.656 131.831C443.362 133.032 444.068 134.237 444.775 135.447C445.482 136.656 446.191 137.873 446.901 139.097L447.162 139.547L447.424 139.996L447.685 140.445L447.946 140.895C447.964 140.93 447.989 140.96 448.019 140.985C448.05 141.01 448.085 141.028 448.122 141.039C448.154 141.047 448.186 141.048 448.218 141.043C448.25 141.037 448.281 141.025 448.308 141.008C448.364 140.972 448.405 140.916 448.42 140.85C448.437 140.77 448.422 140.687 448.378 140.618C447.659 139.38 446.942 138.146 446.225 136.916C445.508 135.687 444.793 134.464 444.081 133.249C443.369 132.034 442.657 130.823 441.946 129.616C441.234 128.409 440.525 127.211 439.819 126.021C439.11 124.825 438.403 123.634 437.696 122.446C436.989 121.259 436.284 120.079 435.582 118.906C434.879 117.733 434.177 116.564 433.476 115.399C432.775 114.234 432.075 113.076 431.377 111.925C430.68 110.775 429.984 109.628 429.288 108.484C428.593 107.341 427.9 106.205 427.209 105.076C426.518 103.947 425.828 102.822 425.138 101.701C424.448 100.579 423.761 99.465 423.076 98.3577L422.562 97.5302L422.049 96.7047L421.535 95.881L421.022 95.0592C420.878 94.8286 420.735 94.5977 420.591 94.3666C420.448 94.1355 420.304 93.9063 420.158 93.679C420.012 93.4517 419.864 93.227 419.715 93.0049C419.566 92.7828 419.413 92.5649 419.256 92.3514C418.972 91.9606 418.668 91.5857 418.343 91.2286C418.032 90.8853 417.691 90.5697 417.326 90.2855C416.986 90.0188 416.612 89.7984 416.214 89.63C415.827 89.4691 415.413 89.3808 414.994 89.3694C414.747 89.3807 414.5 89.4069 414.256 89.4477C414.01 89.4886 413.768 89.5439 413.529 89.6133C413.288 89.6836 413.051 89.7676 412.819 89.865C412.583 89.9643 412.353 90.0766 412.129 90.2014L411.392 90.557L410.657 90.9133L409.924 91.2696L409.196 91.6246L403.389 94.4397L401.957 95.1344C401.926 95.15 401.899 95.1719 401.877 95.1988C401.854 95.2257 401.838 95.2569 401.829 95.2904C401.808 95.3598 401.805 95.4332 401.819 95.5042C401.829 95.5678 401.859 95.6265 401.905 95.6717C401.927 95.692 401.955 95.7047 401.985 95.7078C402.015 95.7109 402.045 95.7043 402.07 95.689Z"
                fill="white"
            />
            <path
                d="M344.584 60.9097L344.316 61.2307C343.826 60.2432 343.177 59.3432 342.395 58.5665C341.735 57.9095 340.943 57.4003 340.072 57.0726C339.267 56.7773 338.402 56.6869 337.555 56.8094C336.65 56.9512 335.791 57.3001 335.044 57.8288C334.196 58.4276 333.459 59.17 332.867 60.0225C332.209 60.9625 331.676 61.9841 331.28 63.0616C330.847 64.2301 330.543 65.4422 330.373 66.6766C330.19 67.9796 330.145 69.2983 330.239 70.6107C330.283 71.2652 330.364 71.9167 330.481 72.5623C330.594 73.1848 330.742 73.8003 330.927 74.4054C331.103 74.9845 331.316 75.5517 331.565 76.1035C331.801 76.6284 332.075 77.1354 332.385 77.6205L332.158 77.9748C331.836 77.4696 331.551 76.9416 331.305 76.3949C331.046 75.8206 330.824 75.2303 330.64 74.6276C330.449 73.9977 330.294 73.3572 330.178 72.7093C330.056 72.0374 329.972 71.3593 329.925 70.6781C329.828 69.3123 329.875 67.9401 330.065 66.5842C330.242 65.2994 330.559 64.0378 331.009 62.8215C331.42 61.6997 331.975 60.6361 332.659 59.6572C333.276 58.7693 334.042 57.9958 334.924 57.3717C335.702 56.8201 336.597 56.4556 337.538 56.3067C338.421 56.178 339.322 56.2711 340.16 56.5776C341.068 56.9179 341.894 57.4475 342.581 58.1312C343.397 58.941 344.073 59.8798 344.584 60.9097Z"
                fill="white"
            />
            <path
                d="M371.669 93.914C371.613 93.8644 371.563 93.8086 371.52 93.7477C371.473 93.683 371.433 93.614 371.399 93.5417C371.364 93.4649 371.335 93.3852 371.313 93.3035C371.289 93.2174 371.273 93.1296 371.263 93.0409C371.254 92.951 371.25 92.8604 371.254 92.77C371.258 92.6814 371.269 92.5932 371.287 92.5061C371.303 92.4218 371.327 92.3389 371.357 92.2584C371.386 92.1812 371.422 92.1068 371.465 92.0362L370.35 75.9225L372.212 76.0509L372.731 91.972C372.81 92.0881 372.871 92.2156 372.911 92.3501C372.954 92.4904 372.979 92.6356 372.985 92.7822C372.991 92.9299 372.979 93.0779 372.948 93.2226C372.919 93.3639 372.869 93.5001 372.8 93.627C372.74 93.7408 372.659 93.8424 372.561 93.9269C372.48 94.0006 372.382 94.0546 372.276 94.0848C372.175 94.1112 372.069 94.1112 371.968 94.0848C371.856 94.0523 371.754 93.9937 371.669 93.914V93.914Z"
                fill="#9E616A"
            />
            <path
                d="M372.972 75.2529L372.481 80.6301L372.549 83.917L370.499 84.2079L370.09 81.491L369.863 74.2944C369.855 74.0225 369.883 73.7507 369.946 73.4861C370.003 73.2434 370.094 73.0101 370.218 72.7934C370.327 72.598 370.471 72.424 370.642 72.2798C370.797 72.1491 370.983 72.0585 371.181 72.016V72.016C371.377 71.9759 371.581 71.9928 371.767 72.0648C371.962 72.1422 372.135 72.2637 372.275 72.4198C372.434 72.5977 372.562 72.8024 372.65 73.0245C372.754 73.2795 372.818 73.5485 372.843 73.8225L372.972 75.2529Z"
                fill="#2F2E41"
            />
            <path d="M365.197 121.971L363.987 121.889L363.414 115.05L365.197 115.146V121.971Z" fill="#9E616A" />
            <path
                d="M365.506 123.708L361.623 123.433V123.361C361.622 123.073 361.662 122.787 361.741 122.511C361.81 122.268 361.918 122.039 362.062 121.832C362.187 121.651 362.35 121.5 362.54 121.391C362.719 121.29 362.923 121.243 363.127 121.256V121.256L365.506 121.413L365.506 123.708Z"
                fill="#2F2E41"
            />
            <path d="M375.416 122.661L374.156 122.575L373.559 115.592L375.416 115.693V122.661Z" fill="#9E616A" />
            <path
                d="M375.737 124.434L371.692 124.147V124.074C371.691 123.78 371.732 123.488 371.815 123.206C371.887 122.958 372 122.724 372.15 122.514C372.281 122.329 372.451 122.175 372.648 122.064C372.835 121.961 373.047 121.914 373.259 121.927V121.927L375.737 122.092V124.434Z"
                fill="#2F2E41"
            />
            <path
                d="M370.551 61.7429C370.917 61.724 371.28 61.81 371.599 61.9907C371.939 62.1872 372.232 62.4561 372.457 62.7785C372.716 63.1463 372.911 63.5546 373.035 63.9867C373.179 64.4762 373.251 64.9839 373.248 65.494C373.25 66.0106 373.178 66.5248 373.035 67.0213C372.909 67.4698 372.714 67.896 372.457 68.2847C372.232 68.6287 371.94 68.924 371.599 69.1533C371.287 69.3618 370.925 69.4816 370.551 69.5C370.185 69.5129 369.823 69.4216 369.508 69.2368C369.171 69.0366 368.881 68.7657 368.659 68.4427C368.404 68.076 368.211 67.6697 368.088 67.2402C367.947 66.7552 367.877 66.2526 367.879 65.7476C367.878 65.2364 367.948 64.7275 368.088 64.2357C368.212 63.79 368.405 63.3661 368.658 62.9788C368.881 62.6353 369.17 62.3393 369.508 62.1076C369.816 61.8942 370.177 61.7683 370.551 61.7429Z"
                fill="#9E616A"
            />
            <path
                d="M370.204 71.087L372.075 71.3278C372.31 71.8035 372.499 72.3008 372.639 72.8127C372.785 73.3435 372.884 73.8859 372.937 74.4337C372.992 74.9944 373.001 75.5586 372.964 76.1208C372.927 76.6863 372.843 77.2477 372.712 77.799L371.299 83.7148C371.299 83.7148 371.422 84.0673 371.606 84.6778C371.789 85.2883 372.035 86.1608 372.28 87.1976C372.526 88.2344 372.773 89.4387 372.957 90.7131C373.153 92.0171 373.256 93.3335 373.265 94.6522C373.341 96.6645 373.538 98.6704 373.853 100.659C374.207 103.18 374.679 106.052 375.152 108.761C375.625 111.47 376.101 114.032 376.458 115.91C376.815 117.787 377.053 118.991 377.053 118.991L371.737 119.463L369.451 99.4151L366.338 119.051L362.83 118.008L364.756 92.3707L366.036 83.8811L366.091 79.7358C366.091 79.7358 366.057 79.5432 366.027 79.2222C365.987 78.7955 365.975 78.3667 365.988 77.9383C366.004 77.3772 366.077 76.8191 366.207 76.273C366.343 75.683 366.582 75.1217 366.913 74.6147L368.593 71.1596L370.204 71.087Z"
                fill="#CACACA"
            />
            <path
                d="M367.439 64.3917L371.368 64.1946V61.707C371.16 61.5941 370.945 61.4927 370.726 61.4033C370.533 61.3211 370.33 61.2677 370.122 61.2447C369.936 61.2245 369.749 61.2605 369.585 61.3481C369.394 61.4625 369.241 61.6298 369.144 61.8296C368.906 61.8456 368.676 61.9259 368.479 62.062C368.264 62.2109 368.08 62.4009 367.938 62.6212C367.776 62.8687 367.653 63.1396 367.573 63.4243C367.484 63.739 367.439 64.0646 367.439 64.3917Z"
                fill="#2F2E41"
            />
            <path
                d="M371.59 61.255C371.868 61.241 372.145 61.29 372.401 61.3985C372.656 61.5069 372.884 61.6718 373.067 61.881C373.494 62.3734 373.814 62.9499 374.005 63.5732C374.239 64.2809 374.404 65.0095 374.497 65.7489C374.59 66.4351 374.638 67.1268 374.64 67.8193C374.644 68.1094 374.618 68.3992 374.563 68.6841C374.523 68.8933 374.449 69.0944 374.343 69.2792C374.255 69.4278 374.137 69.5563 373.996 69.656C373.858 69.7508 373.705 69.8214 373.543 69.8646L373.306 68.0671L372.754 69.9744L372.611 69.9796L372.465 69.9834H372.166L371.979 69.4377L371.563 69.9969C371.148 70.0136 370.753 70.0515 370.394 70.0611C370.074 70.0833 369.753 70.0479 369.445 69.9565C369.306 69.9098 369.178 69.8358 369.069 69.7388C368.959 69.6417 368.87 69.5236 368.807 69.3915C368.63 68.9771 368.55 68.5276 368.573 68.0774C368.574 67.3896 368.617 66.7025 368.701 66.0198C368.788 65.2742 368.942 64.5381 369.164 63.821C369.352 63.1742 369.664 62.5704 370.084 62.044C370.267 61.815 370.495 61.6266 370.754 61.4907C371.013 61.3549 371.298 61.2746 371.59 61.255V61.255Z"
                fill="#2F2E41"
            />
            <path opacity="0.2" d="M368.107 84.9217L368.009 78.7003L367.747 75.9436L367.101 78.6945L368.107 84.9217Z" fill="black" />
            <path
                d="M373.073 84.0429L370.094 84.0724V71.4954L373.073 71.3901C373.369 71.3814 373.661 71.4562 373.916 71.6058C374.189 71.7678 374.425 71.9868 374.606 72.2478C374.814 72.545 374.972 72.8745 375.073 73.2229C375.188 73.6159 375.246 74.0235 375.245 74.4331V80.9017C375.246 81.3131 375.188 81.7225 375.073 82.1176C374.971 82.4723 374.814 82.8087 374.606 83.1139C374.425 83.384 374.19 83.6139 373.916 83.7893C373.664 83.9507 373.372 84.0395 373.073 84.0461V84.0429Z"
                fill="#6C63FF"
            />
            <path
                d="M372.657 77.275C372.605 77.2759 372.555 77.2624 372.51 77.2359C372.463 77.2071 372.422 77.1686 372.391 77.1229C372.355 77.071 372.328 77.0135 372.31 76.9528C372.29 76.8844 372.28 76.8135 372.28 76.7422V72.05L373.034 72.0243V76.7236C373.034 76.7952 373.024 76.8666 373.004 76.9354C372.986 76.9974 372.958 77.0561 372.922 77.1094C372.89 77.1567 372.849 77.1971 372.802 77.2282C372.758 77.2566 372.708 77.2726 372.655 77.2744L372.657 77.275Z"
                fill="#3F3D56"
            />
            <path
                d="M373.564 83.0434L371.377 83.0697C371.312 83.0701 371.248 83.0523 371.192 83.0184C371.133 82.9813 371.082 82.9321 371.042 82.8739C370.997 82.8082 370.963 82.7355 370.941 82.6589C370.916 82.5727 370.903 82.4834 370.903 82.3937V80.5172C370.903 80.4273 370.916 80.3378 370.941 80.2514C370.963 80.1743 370.997 80.101 371.042 80.0344C371.081 79.9746 371.133 79.9235 371.192 79.8842C371.247 79.8486 371.311 79.8289 371.377 79.8271L373.564 79.7866C373.629 79.7859 373.694 79.8034 373.75 79.8373C373.81 79.8741 373.862 79.9231 373.902 79.9812C373.947 80.0472 373.982 80.1203 374.004 80.1975C374.03 80.284 374.042 80.3738 374.042 80.4639V82.352C374.042 82.4424 374.029 82.5323 374.004 82.6191C373.982 82.697 373.947 82.7709 373.902 82.838C373.862 82.8977 373.81 82.9486 373.75 82.9876C373.694 83.0229 373.63 83.0422 373.564 83.0434V83.0434Z"
                fill="#3F3D56"
            />
            <path
                d="M367.386 79.312C367.238 79.0398 367.109 78.7572 367.001 78.4666C366.889 78.1652 366.796 77.8568 366.724 77.5434C366.65 77.22 366.595 76.8925 366.56 76.5624C366.525 76.2249 366.509 75.8855 366.514 75.5462C366.513 74.8916 366.58 74.2386 366.713 73.5978C366.826 73.0425 367.007 72.5034 367.253 71.9928C367.447 71.5762 367.719 71.201 368.055 70.888C368.323 70.634 368.671 70.4814 369.04 70.4565C369.245 70.4642 369.447 70.5097 369.635 70.5907C369.832 70.6767 370.014 70.7935 370.174 70.9368C370.35 71.0941 370.505 71.2741 370.634 71.4722C370.778 71.6922 370.898 71.9278 370.989 72.1745L370.778 72.3735C370.697 72.1521 370.592 71.9404 370.464 71.7424C370.349 71.5642 370.211 71.4019 370.054 71.2597C369.911 71.1288 369.749 71.0216 369.572 70.9419C369.404 70.8667 369.224 70.8232 369.04 70.8135C368.705 70.8369 368.39 70.9784 368.151 71.2128C367.846 71.5048 367.6 71.8526 367.426 72.2374C367.204 72.7133 367.04 73.2145 366.939 73.73C366.818 74.3257 366.758 74.932 366.76 75.5398C366.755 75.8583 366.769 76.1769 366.802 76.4937C366.834 76.8034 366.885 77.1109 366.954 77.4143C367.021 77.7087 367.106 77.9984 367.211 78.2817C367.312 78.5549 367.432 78.8205 367.572 79.0764L367.386 79.312Z"
                fill="#6C63FF"
            />
            <path
                d="M368.584 94.5321C368.525 94.4737 368.473 94.4091 368.428 94.3395C368.381 94.2641 368.34 94.1843 368.307 94.1014C368.272 94.015 368.244 93.9259 368.223 93.8349C368.201 93.7397 368.187 93.6429 368.18 93.5454C368.172 93.4471 368.172 93.3484 368.18 93.2501C368.188 93.1543 368.203 93.0592 368.225 92.9657C368.246 92.8757 368.275 92.7877 368.312 92.7025C368.347 92.6211 368.39 92.5433 368.44 92.4701L367.891 74.8419L369.902 75.136L369.812 92.5163C369.893 92.6489 369.953 92.7928 369.992 92.9432C370.075 93.2546 370.077 93.5821 369.999 93.8946C369.96 94.0455 369.899 94.1896 369.817 94.3222C369.747 94.4402 369.655 94.5437 369.546 94.6271C369.452 94.699 369.342 94.7473 369.225 94.7678C369.114 94.7866 368.999 94.7764 368.893 94.7382C368.774 94.6942 368.666 94.624 368.579 94.5328L368.584 94.5321Z"
                fill="#9E616A"
            />
            <path
                d="M370.757 74.3285L370.004 80.1462L369.943 83.731L367.713 83.8741L367.382 80.8844L367.431 73.0259C367.433 72.7304 367.473 72.4363 367.552 72.1516C367.623 71.893 367.731 71.6462 367.873 71.4191C367.999 71.2161 368.163 71.0386 368.355 70.8958C368.529 70.7657 368.733 70.682 368.949 70.6525V70.6525C369.165 70.6253 369.385 70.6604 369.582 70.754C369.79 70.8549 369.973 71.0015 370.117 71.1828C370.282 71.3897 370.412 71.6233 370.499 71.8736C370.599 72.1589 370.658 72.4573 370.673 72.7595L370.757 74.3285Z"
                fill="#CACACA"
            />
            <path
                d="M370.973 126.828C370.992 126.751 371.03 126.681 371.083 126.622C371.135 126.563 371.201 126.517 371.274 126.489C371.466 126.418 371.672 126.396 371.874 126.425C372.153 126.458 372.426 126.528 372.687 126.631C373.015 126.758 373.331 126.914 373.631 127.097C373.948 127.289 374.248 127.507 374.529 127.749C374.781 127.962 375.012 128.199 375.219 128.455C375.389 128.661 375.528 128.891 375.632 129.137C375.714 129.315 375.737 129.514 375.7 129.706C375.679 129.783 375.641 129.854 375.587 129.913C375.534 129.973 375.467 130.018 375.392 130.046C375.197 130.116 374.989 130.136 374.784 130.105C374.503 130.07 374.228 129.998 373.964 129.893C373.636 129.765 373.32 129.607 373.02 129.421C372.705 129.229 372.406 129.012 372.126 128.771C371.878 128.557 371.649 128.321 371.445 128.065C371.278 127.861 371.141 127.634 371.039 127.391C370.959 127.215 370.936 127.018 370.973 126.828V126.828Z"
                fill="white"
            />
            <path
                d="M379.534 126.919C379.563 126.848 379.612 126.786 379.674 126.74C379.736 126.694 379.809 126.665 379.885 126.657C380.097 126.635 380.312 126.665 380.51 126.743C380.795 126.847 381.068 126.983 381.322 127.149C381.646 127.357 381.953 127.59 382.239 127.847C382.541 128.116 382.824 128.407 383.084 128.718C383.316 128.992 383.524 129.285 383.706 129.593C383.855 129.837 383.969 130.099 384.048 130.373C384.11 130.561 384.11 130.765 384.048 130.954C384.017 131.025 383.968 131.088 383.905 131.134C383.842 131.179 383.768 131.208 383.69 131.215C383.475 131.235 383.258 131.203 383.058 131.123C382.77 131.016 382.496 130.877 382.24 130.708C381.917 130.498 381.611 130.262 381.326 130.002C381.026 129.734 380.745 129.444 380.487 129.136C380.258 128.863 380.052 128.573 379.871 128.266C379.725 128.025 379.611 127.766 379.534 127.495C379.472 127.308 379.472 127.106 379.534 126.919Z"
                fill="white"
            />
            <path
                d="M383.514 135.487C383.542 135.414 383.589 135.349 383.65 135.3C383.711 135.251 383.784 135.218 383.862 135.206C384.075 135.174 384.293 135.194 384.497 135.263C384.788 135.354 385.068 135.479 385.331 135.634C385.665 135.829 385.982 136.05 386.279 136.296C386.595 136.553 386.891 136.834 387.165 137.135C387.408 137.4 387.629 137.686 387.825 137.989C387.983 138.228 388.108 138.487 388.196 138.76C388.265 138.948 388.272 139.154 388.214 139.347C388.185 139.421 388.137 139.486 388.075 139.535C388.013 139.584 387.939 139.616 387.861 139.628C387.645 139.657 387.425 139.635 387.219 139.563C386.924 139.47 386.642 139.342 386.377 139.184C386.043 138.989 385.726 138.766 385.428 138.519C385.114 138.262 384.821 137.982 384.549 137.681C384.308 137.417 384.09 137.133 383.897 136.832C383.742 136.595 383.619 136.339 383.532 136.069C383.464 135.882 383.458 135.678 383.514 135.487V135.487Z"
                fill="white"
            />
            <path
                d="M392.05 139.084C392.08 139.009 392.128 138.943 392.192 138.893C392.255 138.844 392.33 138.811 392.41 138.8C392.631 138.769 392.856 138.791 393.066 138.864C393.368 138.959 393.658 139.088 393.931 139.249C394.275 139.448 394.603 139.674 394.911 139.926C395.237 140.189 395.542 140.476 395.826 140.784C396.078 141.056 396.306 141.349 396.509 141.659C396.672 141.903 396.802 142.167 396.894 142.446C396.966 142.637 396.972 142.847 396.913 143.043C396.883 143.118 396.833 143.184 396.769 143.234C396.704 143.284 396.628 143.316 396.547 143.326C396.323 143.355 396.095 143.331 395.882 143.257C395.577 143.16 395.285 143.028 395.011 142.865C394.666 142.664 394.337 142.435 394.029 142.181C393.705 141.917 393.402 141.63 393.12 141.322C392.872 141.052 392.647 140.761 392.448 140.454C392.287 140.213 392.16 139.951 392.069 139.675C391.999 139.485 391.992 139.278 392.05 139.084V139.084Z"
                fill="white"
            />
            <path
                d="M351.474 66.3421C350.906 65.9417 350.268 65.65 349.594 65.4819C348.962 65.3283 348.306 65.3019 347.664 65.4042C347.001 65.5131 346.364 65.7429 345.784 66.0821C345.139 66.461 344.556 66.9367 344.055 67.4926C345.057 67.7104 346.061 67.9516 347.067 68.2161C348.072 68.4806 349.082 68.7699 350.098 69.084C351.114 69.3986 352.131 69.7369 353.148 70.099C354.165 70.4611 355.187 70.8491 356.214 71.2629C355.782 70.8941 355.375 70.4955 354.998 70.0701C354.609 69.64 354.228 69.1855 353.852 68.7367C353.477 68.288 353.095 67.8457 352.702 67.4367C352.326 67.0361 351.915 66.6698 351.474 66.3421V66.3421Z"
                fill="white"
            />
            <path
                d="M344.033 67.4868L343.594 68.0524C343.631 68.0032 343.668 67.9546 343.706 67.9067C343.744 67.8587 343.782 67.8114 343.82 67.7648C343.859 67.7181 343.898 67.6723 343.937 67.6274C343.976 67.5825 344.016 67.5377 344.055 67.4932L344.033 67.4868Z"
                fill="#F2F2F2"
            />
            <path
                d="M418.083 95.9208C417.955 95.6686 417.812 95.4246 417.653 95.1903C417.5 94.9653 417.333 94.7508 417.151 94.5483C416.976 94.354 416.787 94.1727 416.585 94.0058C416.392 93.8448 416.186 93.6992 415.97 93.5706L415.149 93.6065C416.713 97.2791 418.422 100.857 420.277 104.339C422.142 107.842 424.152 111.241 426.305 114.536C428.474 117.854 430.785 121.057 433.238 124.146C435.713 127.259 438.33 130.245 441.091 133.106L435.159 123.517L429.349 114.127L423.658 104.93L418.083 95.9208Z"
                fill="white"
            />
            <path
                d="M91.193 135.132C90.8565 135.132 90.5285 135.026 90.2552 134.829C89.9819 134.633 89.7772 134.356 89.6699 134.037L88.853 131.603C88.7845 131.403 88.7562 131.191 88.7698 130.98C88.7834 130.768 88.8386 130.562 88.9323 130.372C89.0259 130.183 89.1562 130.013 89.3156 129.874C89.4749 129.735 89.6603 129.628 89.8609 129.561C90.0615 129.494 90.2735 129.467 90.4846 129.482C90.6956 129.497 90.9017 129.553 91.0908 129.648C91.28 129.743 91.4485 129.874 91.5867 130.034C91.725 130.195 91.8301 130.381 91.8962 130.582L92.7131 133.016C92.8479 133.419 92.8172 133.86 92.6277 134.241C92.4382 134.622 92.1053 134.912 91.7021 135.048H91.7018C91.5378 135.103 91.366 135.132 91.193 135.132V135.132Z"
                fill="#3F3D56"
            />
            <path
                d="M93.0574 141.57C92.7087 141.569 92.3698 141.454 92.0917 141.244C91.8137 141.034 91.6117 140.738 91.5161 140.403L90.8139 137.933C90.6981 137.524 90.7494 137.085 90.9567 136.714C91.1639 136.342 91.5102 136.068 91.9194 135.952C92.3286 135.835 92.7672 135.886 93.1388 136.093C93.5105 136.3 93.7849 136.646 93.9016 137.055L94.6038 139.525C94.6614 139.728 94.6785 139.94 94.6542 140.15C94.6298 140.359 94.5644 140.561 94.4618 140.746C94.3592 140.93 94.2213 141.092 94.056 141.223C93.8907 141.353 93.7012 141.45 93.4985 141.508C93.355 141.549 93.2066 141.57 93.0574 141.57V141.57Z"
                fill="#3F3D56"
            />
        </svg>
